<svg preserveAspectRatio="xMidYMid meet" viewBox="190.12388610839844 200.37347412109375 3480.285888671875 626.551513671875" id="svg" version="1.1"
  xmlns="http://www.w3.org/2000/svg">
  <path d="M292.500 201.101 C 268.352 204.612,245.237 216.714,225.920 235.959 C 206.674 255.135,195.394 276.645,191.476 301.646 C 190.112 310.344,189.967 335.717,190.235 518.000 L 190.539 724.500 192.741 732.693 C 197.707 751.173,206.737 768.800,219.357 784.649 C 233.331 802.199,256.865 817.214,280.723 823.801 L 290.500 826.500 506.000 826.787 C 743.657 827.104,730.029 827.435,748.714 820.893 C 789.986 806.443,820.983 769.583,829.465 724.872 C 830.856 717.538,831.029 693.587,831.010 511.382 C 830.985 285.000,831.418 300.890,824.765 282.000 C 810.695 242.050,779.676 213.885,737.000 202.311 C 730.894 200.656,717.392 200.539,514.500 200.388 C 395.700 200.300,295.800 200.621,292.500 201.101 M714.419 284.289 C 729.961 288.947,745.607 302.103,752.400 316.225 C 759.364 330.703,758.965 318.700,758.965 514.000 C 758.965 709.626,759.365 697.801,752.301 711.252 C 741.852 731.148,721.045 744.850,702.844 743.821 C 696.186 743.445,695.578 743.207,692.387 739.726 C 689.718 736.813,689.000 735.181,689.000 732.030 C 689.000 726.102,692.724 722.467,701.858 719.478 C 717.112 714.486,726.100 705.506,729.865 691.494 C 730.607 688.730,730.976 633.751,731.061 513.000 C 731.184 339.497,731.173 338.469,729.140 333.122 C 725.271 322.947,718.322 315.797,707.410 310.765 L 702.500 308.500 514.500 308.194 C 374.732 307.967,325.089 308.186,321.000 309.048 C 308.445 311.695,297.290 320.696,292.804 331.798 L 290.500 337.500 290.194 511.000 C 289.964 641.167,290.182 685.874,291.063 690.000 C 292.677 697.551,296.305 704.358,301.466 709.519 C 306.575 714.628,311.380 717.253,319.500 719.374 C 326.985 721.328,330.166 723.694,331.776 728.503 C 333.329 733.144,332.147 737.574,328.422 741.073 C 326.401 742.972,324.553 743.516,319.072 743.826 C 300.038 744.902,278.866 730.826,268.513 710.213 C 262.034 697.313,262.563 713.700,262.251 516.225 C 261.936 316.772,261.479 330.800,268.782 316.000 C 273.151 307.148,283.172 296.090,291.223 291.238 C 298.313 286.966,306.947 283.981,315.000 283.020 C 318.575 282.593,408.575 282.304,515.000 282.379 C 697.154 282.507,708.847 282.619,714.419 284.289 M350.568 333.464 C 354.208 334.985,357.004 339.662,356.996 344.218 C 356.990 347.751,353.567 352.535,350.118 353.830 C 348.403 354.473,345.654 355.503,344.009 356.118 C 339.280 357.885,336.672 363.036,337.212 369.545 C 337.770 376.274,339.557 378.396,347.791 382.113 C 353.001 384.465,354.350 385.594,355.639 388.679 C 357.638 393.462,356.818 398.636,353.544 401.911 C 350.259 405.195,342.424 405.369,336.493 402.289 C 330.840 399.352,322.375 390.036,319.196 383.253 C 316.889 378.330,316.502 376.201,316.513 368.500 C 316.524 360.492,316.873 358.762,319.687 352.799 C 324.419 342.772,332.929 335.022,341.500 332.935 C 346.023 331.834,346.771 331.877,350.568 333.464 M397.500 334.394 C 407.532 339.159,416.405 351.481,417.984 362.842 C 418.907 369.479,417.645 378.753,415.010 384.711 C 411.194 393.338,399.824 403.061,391.847 404.519 C 385.086 405.754,378.000 400.347,378.000 393.951 C 378.000 388.764,381.141 384.853,387.655 381.930 C 394.976 378.646,397.990 374.727,397.996 368.484 C 398.003 361.619,395.204 357.866,387.895 354.940 C 382.847 352.919,381.121 351.655,379.702 348.940 C 377.378 344.494,378.097 339.551,381.600 335.895 C 385.825 331.486,390.456 331.049,397.500 334.394 M683.066 335.760 C 697.247 342.717,706.355 360.845,702.945 375.326 C 698.907 392.469,685.621 404.000,669.905 404.000 C 656.697 404.000,649.183 399.805,648.296 391.936 C 647.818 387.696,648.024 387.186,651.411 384.213 C 656.103 380.093,659.160 379.373,663.409 381.390 C 667.959 383.549,670.740 383.397,675.444 380.733 C 685.445 375.069,685.696 362.775,675.946 356.173 C 673.214 354.324,671.697 353.967,668.625 354.452 C 662.703 355.387,661.016 356.715,658.487 362.433 C 654.503 371.441,654.445 371.453,614.500 371.767 C 581.898 372.024,580.365 371.952,577.225 370.017 C 569.621 365.332,570.680 354.802,579.198 350.398 C 581.335 349.293,588.142 348.999,611.700 348.997 L 641.500 348.994 643.496 346.015 C 646.076 342.165,653.667 336.392,658.617 334.515 C 664.496 332.287,677.317 332.940,683.066 335.760 M545.600 351.400 C 549.342 355.142,549.348 355.179,549.006 372.994 C 548.897 378.653,548.233 383.904,547.361 385.994 C 545.486 390.490,540.588 395.587,535.500 398.338 C 531.552 400.472,530.847 400.500,481.668 400.500 L 431.837 400.500 428.972 397.294 C 423.180 390.813,424.548 382.528,432.034 378.752 C 435.181 377.164,439.660 377.003,480.750 377.002 L 526.000 377.000 526.000 367.401 C 526.000 353.354,529.356 348.089,538.350 348.027 C 541.415 348.005,542.894 348.694,545.600 351.400 M350.938 431.864 C 357.565 436.647,359.441 443.392,356.076 450.343 C 350.219 462.441,330.921 459.759,328.434 446.501 C 327.249 440.185,333.022 431.422,339.500 429.703 C 342.636 428.870,348.264 429.933,350.938 431.864 M446.016 430.852 C 456.163 436.244,456.803 451.431,447.094 456.451 C 443.270 458.429,436.718 458.434,432.565 456.464 C 428.957 454.752,425.000 448.587,425.000 444.679 C 425.000 438.876,429.012 432.851,434.500 430.412 C 438.664 428.561,441.941 428.686,446.016 430.852 M397.486 433.168 C 402.785 437.336,403.000 439.007,403.000 476.067 C 403.000 505.585,402.779 510.663,401.365 513.643 C 397.380 522.041,384.739 522.197,380.449 513.901 C 378.258 509.664,378.315 441.226,380.513 436.976 C 383.556 431.091,392.340 429.120,397.486 433.168 M548.578 436.235 C 552.417 440.426,553.077 445.017,550.544 449.915 C 547.584 455.639,545.277 456.000,511.676 456.000 L 481.153 456.000 478.095 453.426 C 476.413 452.011,474.517 449.119,473.882 447.000 C 472.890 443.689,473.000 442.622,474.664 439.415 C 478.459 432.102,479.508 431.912,514.328 432.224 L 545.156 432.500 548.578 436.235 M687.763 433.997 C 689.558 435.091,691.787 437.583,692.718 439.534 C 694.239 442.725,694.263 443.503,692.955 447.259 C 692.024 449.929,690.275 452.258,688.102 453.717 L 684.704 456.000 633.302 456.000 C 576.913 456.000,577.641 456.074,574.517 450.033 C 571.168 443.556,573.734 436.331,580.415 433.421 C 582.859 432.357,593.992 432.071,634.000 432.043 C 682.684 432.009,684.617 432.079,687.763 433.997 M350.102 493.258 C 354.753 496.349,358.281 503.419,357.460 508.000 C 356.119 515.477,349.796 521.048,342.730 520.978 C 337.825 520.930,332.362 517.379,330.144 512.798 C 326.867 506.028,327.625 501.158,332.814 495.646 C 337.728 490.425,344.443 489.497,350.102 493.258 M543.980 492.752 C 554.687 498.131,554.687 513.769,543.980 519.297 C 537.219 522.787,528.402 519.527,524.871 512.233 C 518.656 499.396,531.382 486.422,543.980 492.752 M594.980 492.752 C 596.894 493.713,599.521 496.075,600.819 498.000 C 602.801 500.943,603.111 502.439,602.764 507.395 C 602.398 512.620,601.949 513.658,598.811 516.534 C 596.587 518.573,593.724 520.040,591.108 520.482 C 581.305 522.138,571.756 512.492,573.873 503.071 C 576.081 493.241,586.153 488.317,594.980 492.752 M643.685 492.064 C 650.937 494.804,655.211 503.015,653.083 510.118 C 651.704 514.718,646.189 519.686,641.478 520.570 C 636.247 521.551,629.544 518.695,626.473 514.175 C 618.443 502.357,630.371 487.033,643.685 492.064 M685.931 492.464 C 699.249 499.351,696.765 517.866,682.154 520.626 C 670.156 522.893,661.289 510.136,667.196 499.105 C 671.050 491.909,679.242 489.005,685.931 492.464 M498.304 496.166 C 503.268 498.814,505.396 507.400,502.483 513.033 C 499.506 518.790,498.133 519.003,464.300 518.965 C 430.991 518.926,430.522 518.857,426.946 513.433 C 422.228 506.274,427.095 495.801,435.590 494.832 C 441.972 494.104,496.618 495.266,498.304 496.166 M349.624 554.060 C 354.156 556.254,358.000 562.241,358.000 567.104 C 358.000 571.405,353.791 578.350,350.000 580.305 C 339.870 585.527,326.368 575.612,328.443 564.474 C 329.225 560.274,334.490 554.209,338.313 553.103 C 343.225 551.681,345.025 551.834,349.624 554.060 M446.016 553.852 C 458.250 560.353,455.862 579.059,442.477 581.570 C 437.623 582.481,433.687 581.301,430.197 577.888 C 424.233 572.057,423.642 563.955,428.740 557.897 C 433.589 552.134,439.971 550.640,446.016 553.852 M495.396 554.266 C 500.723 557.321,503.240 562.164,502.701 568.324 C 502.168 574.422,499.528 577.986,493.770 580.384 C 488.031 582.774,483.192 581.985,478.540 577.901 C 472.260 572.387,471.515 564.107,476.740 557.897 C 481.816 551.865,488.827 550.501,495.396 554.266 M397.486 556.168 C 402.611 560.199,403.000 562.652,403.000 590.968 L 403.000 617.000 448.532 617.000 C 498.534 617.000,499.449 617.100,502.434 622.872 C 505.755 629.294,503.364 636.024,496.684 639.057 C 492.770 640.834,489.523 640.957,446.299 640.978 C 416.193 640.992,398.299 640.614,394.933 639.892 C 391.424 639.140,388.500 637.640,385.819 635.217 C 378.890 628.958,379.000 629.615,379.000 594.500 C 379.000 560.618,379.208 559.069,384.217 555.561 C 387.504 553.258,394.176 553.564,397.486 556.168 M687.634 556.918 C 693.629 560.902,694.834 569.915,690.083 575.234 L 687.165 578.500 611.333 579.000 C 569.625 579.275,534.066 579.149,532.314 578.721 C 525.212 576.983,521.842 568.074,525.565 560.875 C 528.668 554.873,526.297 555.031,609.500 555.276 C 673.155 555.464,685.847 555.730,687.634 556.918 M351.855 609.425 C 355.206 611.158,357.000 614.815,357.000 619.912 C 357.000 624.512,354.345 628.229,349.784 630.015 C 339.339 634.103,337.000 636.709,337.000 644.256 C 337.000 650.981,340.155 654.932,348.038 658.080 C 355.036 660.875,356.960 663.180,356.985 668.800 C 357.056 684.648,335.812 682.772,323.376 665.831 C 316.638 656.652,314.520 645.102,317.487 633.711 C 321.927 616.664,340.489 603.547,351.855 609.425 M680.712 610.154 C 688.633 613.102,697.894 622.458,700.996 630.645 C 704.047 638.698,704.027 649.353,700.945 657.500 C 697.802 665.807,688.684 674.952,681.000 677.504 C 666.941 682.173,652.822 677.716,644.361 665.940 L 640.866 661.075 594.183 660.787 C 547.875 660.502,547.460 660.482,542.500 658.199 C 536.463 655.420,531.552 650.890,528.733 645.500 C 526.124 640.511,525.079 625.637,527.010 620.976 C 529.605 614.711,538.030 611.824,543.418 615.354 C 547.750 618.193,549.150 621.425,549.733 629.939 L 550.282 637.948 601.537 638.224 C 659.948 638.539,655.647 637.835,658.468 647.537 C 661.288 657.239,669.493 660.875,677.001 655.750 C 684.230 650.815,685.529 643.054,680.284 636.144 C 676.592 631.280,672.791 630.019,663.863 630.694 L 656.359 631.262 652.180 627.286 C 646.774 622.143,646.550 618.516,651.344 613.723 C 653.183 611.884,656.221 609.890,658.094 609.292 C 664.048 607.391,674.343 607.783,680.712 610.154 M625.836 693.156 C 629.305 694.254,659.539 722.237,663.112 727.656 C 665.400 731.126,665.565 737.748,663.439 740.783 C 660.215 745.387,653.299 747.205,647.458 744.984 C 645.989 744.425,638.319 737.675,630.414 729.984 L 616.041 716.000 510.351 716.000 L 404.660 716.000 391.080 729.388 C 376.458 743.804,373.286 746.000,367.084 746.000 C 358.862 746.000,352.795 736.847,356.235 729.633 C 358.380 725.136,384.641 698.322,390.000 695.157 L 394.500 692.500 431.000 692.000 C 490.855 691.180,622.055 691.958,625.836 693.156 M603.965 743.306 C 605.945 743.988,608.410 745.956,609.715 747.898 C 614.166 754.517,611.850 762.442,604.414 766.042 C 600.363 768.002,598.515 768.036,508.215 767.770 C 416.979 767.502,416.120 767.481,413.323 765.435 C 411.770 764.300,409.654 761.669,408.621 759.588 C 407.032 756.389,406.916 755.223,407.870 752.040 C 409.164 747.720,413.152 743.314,416.327 742.696 C 417.522 742.463,459.450 742.236,509.500 742.193 C 577.583 742.133,601.373 742.413,603.965 743.306 " stroke="none" fill="#fff" fill-rule="evenodd"/>
  <g class="text-group" transform="translate(512, 0)">
    <path d="M657.10 459.42L657.10 459.42L587.86 463.68Q586.08 454.80 580.22 447.61Q574.36 440.42 564.86 436.07Q555.36 431.72 542.22 431.72L542.22 431.72Q524.64 431.72 512.57 439.09Q500.50 446.46 500.50 458.71L500.50 458.71Q500.50 468.47 508.31 475.22Q516.12 481.97 535.12 486.05L535.12 486.05L584.48 495.99Q624.25 504.16 643.79 522.27Q663.32 540.38 663.32 569.86L663.32 569.86Q663.32 596.67 647.60 616.91Q631.89 637.15 604.63 648.43Q577.38 659.70 541.87 659.70L541.87 659.70Q487.71 659.70 455.66 637.06Q423.62 614.42 418.11 575.36L418.11 575.36L492.51 571.46Q495.88 587.97 508.84 596.58Q521.80 605.19 542.05 605.19L542.05 605.19Q561.93 605.19 574.09 597.47Q586.26 589.74 586.43 577.49L586.43 577.49Q586.26 567.19 577.73 560.54Q569.21 553.88 551.46 550.33L551.46 550.33L504.23 540.92Q464.28 532.93 444.83 513.22Q425.39 493.51 425.39 462.97L425.39 462.97Q425.39 436.69 439.68 417.69Q453.98 398.69 479.99 388.39Q506.00 378.10 540.98 378.10L540.98 378.10Q592.65 378.10 622.39 399.94Q652.13 421.78 657.10 459.42ZM836.30 659.70L836.30 659.70Q794.93 659.70 764.84 642.03Q734.74 624.37 718.41 592.67Q702.07 560.98 702.07 519.08L702.07 519.08Q702.07 476.82 718.41 445.12Q734.74 413.43 764.84 395.76Q794.93 378.10 836.30 378.10L836.30 378.10Q877.67 378.10 907.77 395.76Q937.87 413.43 954.20 445.12Q970.54 476.82 970.54 519.08L970.54 519.08Q970.54 560.98 954.20 592.67Q937.87 624.37 907.77 642.03Q877.67 659.70 836.30 659.70ZM836.66 601.11L836.66 601.11Q855.48 601.11 868.09 590.37Q880.69 579.62 887.17 560.98Q893.65 542.34 893.65 518.54L893.65 518.54Q893.65 494.75 887.17 476.11Q880.69 457.46 868.09 446.63Q855.48 435.80 836.66 435.80L836.66 435.80Q817.66 435.80 804.79 446.63Q791.91 457.46 785.43 476.11Q778.95 494.75 778.95 518.54L778.95 518.54Q778.95 542.34 785.43 560.98Q791.91 579.62 804.79 590.37Q817.66 601.11 836.66 601.11ZM1196.79 538.25L1196.79 538.25L1196.79 381.65L1272.43 381.65L1272.43 654.38L1199.81 654.38L1199.81 604.84L1196.97 604.84Q1187.74 628.81 1166.34 643.37Q1144.94 657.93 1114.23 657.93L1114.23 657.93Q1086.88 657.93 1066.11 645.50Q1045.34 633.07 1033.71 610.16Q1022.08 587.26 1021.90 555.30L1021.90 555.30L1021.90 381.65L1097.54 381.65L1097.54 541.80Q1097.71 565.95 1110.50 579.98Q1123.28 594.01 1144.77 594.01L1144.77 594.01Q1158.44 594.01 1170.34 587.70Q1182.23 581.40 1189.60 568.97Q1196.97 556.54 1196.79 538.25ZM1410.44 654.38L1334.80 654.38L1334.80 381.65L1408.13 381.65L1408.13 429.23L1410.97 429.23Q1418.43 403.84 1436.01 390.79Q1453.59 377.74 1476.49 377.74L1476.49 377.74Q1482.17 377.74 1488.74 378.45Q1495.31 379.16 1500.28 380.40L1500.28 380.40L1500.28 447.52Q1494.96 445.92 1485.55 444.68Q1476.13 443.44 1468.32 443.44L1468.32 443.44Q1451.63 443.44 1438.58 450.63Q1425.53 457.82 1417.99 470.60Q1410.44 483.39 1410.44 500.08L1410.44 500.08L1410.44 654.38ZM1664.39 659.70L1664.39 659.70Q1622.49 659.70 1592.39 641.86Q1562.30 624.01 1546.23 592.23Q1530.16 560.45 1530.16 519.08L1530.16 519.08Q1530.16 477.17 1546.41 445.48Q1562.65 413.79 1592.66 395.94Q1622.67 378.10 1664.04 378.10L1664.04 378.10Q1699.73 378.10 1726.54 391.06Q1753.35 404.02 1768.97 427.46Q1784.60 450.89 1786.20 482.50L1786.20 482.50L1714.82 482.50Q1711.80 462.08 1698.93 449.56Q1686.05 437.05 1665.28 437.05L1665.28 437.05Q1647.70 437.05 1634.65 446.54Q1621.60 456.04 1614.32 474.15Q1607.04 492.27 1607.04 518.01L1607.04 518.01Q1607.04 544.11 1614.23 562.40Q1621.42 580.69 1634.56 590.28Q1647.70 599.87 1665.28 599.87L1665.28 599.87Q1678.24 599.87 1688.63 594.54Q1699.02 589.21 1705.85 579.00Q1712.69 568.79 1714.82 554.41L1714.82 554.41L1786.20 554.41Q1784.42 585.66 1769.24 609.36Q1754.06 633.07 1727.42 646.38Q1700.79 659.70 1664.39 659.70ZM1961.14 659.70L1961.14 659.70Q1919.06 659.70 1888.78 642.57Q1858.51 625.43 1842.17 593.92Q1825.84 562.40 1825.84 519.25L1825.84 519.25Q1825.84 477.17 1842.17 445.39Q1858.51 413.61 1888.25 395.85Q1917.99 378.10 1958.12 378.10L1958.12 378.10Q1985.11 378.10 2008.46 386.71Q2031.80 395.32 2049.29 412.54Q2066.78 429.77 2076.55 455.78Q2086.31 481.79 2086.31 516.59L2086.31 516.59L2086.31 537.37L1856.02 537.37L1856.02 490.49L2015.11 490.49Q2015.11 474.15 2008.01 461.55Q2000.91 448.94 1988.39 441.75Q1975.87 434.56 1959.36 434.56L1959.36 434.56Q1942.14 434.56 1928.91 442.46Q1915.68 450.36 1908.22 463.59Q1900.77 476.82 1900.59 492.98L1900.59 492.98L1900.59 537.54Q1900.59 557.78 1908.14 572.52Q1915.68 587.26 1929.53 595.25Q1943.38 603.24 1962.38 603.24L1962.38 603.24Q1974.99 603.24 1985.46 599.69Q1995.94 596.14 2003.39 589.03Q2010.85 581.93 2014.76 571.63L2014.76 571.63L2084.72 576.25Q2079.39 601.46 2062.97 620.20Q2046.54 638.93 2020.71 649.31Q1994.87 659.70 1961.14 659.70ZM2260.90 659.70L2260.90 659.70Q2219.00 659.70 2188.90 641.86Q2158.80 624.01 2142.74 592.23Q2126.67 560.45 2126.67 519.08L2126.67 519.08Q2126.67 477.17 2142.91 445.48Q2159.16 413.79 2189.17 395.94Q2219.17 378.10 2260.54 378.10L2260.54 378.10Q2296.23 378.10 2323.04 391.06Q2349.86 404.02 2365.48 427.46Q2381.11 450.89 2382.70 482.50L2382.70 482.50L2311.33 482.50Q2308.31 462.08 2295.43 449.56Q2282.56 437.05 2261.79 437.05L2261.79 437.05Q2244.21 437.05 2231.16 446.54Q2218.11 456.04 2210.83 474.15Q2203.55 492.27 2203.55 518.01L2203.55 518.01Q2203.55 544.11 2210.74 562.40Q2217.93 580.69 2231.07 590.28Q2244.21 599.87 2261.79 599.87L2261.79 599.87Q2274.75 599.87 2285.14 594.54Q2295.52 589.21 2302.36 579.00Q2309.19 568.79 2311.33 554.41L2311.33 554.41L2382.70 554.41Q2380.93 585.66 2365.75 609.36Q2350.57 633.07 2323.93 646.38Q2297.30 659.70 2260.90 659.70ZM2511.12 659.52L2511.12 659.52Q2485.02 659.52 2464.60 650.38Q2444.18 641.24 2432.38 623.21Q2420.57 605.19 2420.57 578.20L2420.57 578.20Q2420.57 555.48 2428.91 540.03Q2437.26 524.58 2451.64 515.17Q2466.02 505.76 2484.40 500.97Q2502.78 496.17 2523.02 494.22L2523.02 494.22Q2546.81 491.73 2561.37 489.51Q2575.93 487.29 2582.50 482.86Q2589.07 478.42 2589.07 469.72L2589.07 469.72L2589.07 468.65Q2589.07 451.78 2578.51 442.55Q2567.94 433.32 2548.59 433.32L2548.59 433.32Q2528.17 433.32 2516.10 442.28Q2504.02 451.25 2500.12 464.74L2500.12 464.74L2430.16 459.06Q2435.48 434.20 2451.11 416.00Q2466.73 397.81 2491.50 387.95Q2516.27 378.10 2548.94 378.10L2548.94 378.10Q2571.67 378.10 2592.53 383.42Q2613.40 388.75 2629.64 399.94Q2645.89 411.12 2655.30 428.61Q2664.71 446.10 2664.71 470.43L2664.71 470.43L2664.71 654.38L2592.98 654.38L2592.98 616.56L2590.85 616.56Q2584.28 629.34 2573.27 639.02Q2562.26 648.69 2546.81 654.11Q2531.37 659.52 2511.12 659.52ZM2532.79 607.32L2532.79 607.32Q2549.48 607.32 2562.26 600.66Q2575.04 594.01 2582.32 582.64Q2589.60 571.28 2589.60 556.90L2589.60 556.90L2589.60 527.95Q2586.05 530.26 2579.93 532.13Q2573.80 533.99 2566.17 535.50Q2558.53 537.01 2550.90 538.16Q2543.26 539.32 2537.05 540.21L2537.05 540.21Q2523.73 542.16 2513.79 546.42Q2503.84 550.68 2498.34 557.87Q2492.84 565.06 2492.84 575.72L2492.84 575.72Q2492.84 591.16 2504.11 599.24Q2515.38 607.32 2532.79 607.32ZM2952.40 459.42L2952.40 459.42L2883.15 463.68Q2881.38 454.80 2875.52 447.61Q2869.66 440.42 2860.16 436.07Q2850.66 431.72 2837.52 431.72L2837.52 431.72Q2819.94 431.72 2807.87 439.09Q2795.79 446.46 2795.79 458.71L2795.79 458.71Q2795.79 468.47 2803.61 475.22Q2811.42 481.97 2830.42 486.05L2830.42 486.05L2879.78 495.99Q2919.55 504.16 2939.08 522.27Q2958.61 540.38 2958.61 569.86L2958.61 569.86Q2958.61 596.67 2942.90 616.91Q2927.19 637.15 2899.93 648.43Q2872.68 659.70 2837.16 659.70L2837.16 659.70Q2783.01 659.70 2750.96 637.06Q2718.91 614.42 2713.41 575.36L2713.41 575.36L2787.80 571.46Q2791.18 587.97 2804.14 596.58Q2817.10 605.19 2837.34 605.19L2837.34 605.19Q2857.23 605.19 2869.39 597.47Q2881.55 589.74 2881.73 577.49L2881.73 577.49Q2881.55 567.19 2873.03 560.54Q2864.51 553.88 2846.75 550.33L2846.75 550.33L2799.52 540.92Q2759.57 532.93 2740.13 513.22Q2720.69 493.51 2720.69 462.97L2720.69 462.97Q2720.69 436.69 2734.98 417.69Q2749.27 398.69 2775.29 388.39Q2801.30 378.10 2836.28 378.10L2836.28 378.10Q2887.95 378.10 2917.69 399.94Q2947.43 421.78 2952.40 459.42ZM2989.20 381.65L3153.44 381.65L3153.44 438.47L2989.20 438.47L2989.20 381.65ZM3026.49 580.51L3026.49 316.31L3102.13 316.31L3102.13 570.57Q3102.13 581.04 3105.32 586.81Q3108.52 592.59 3114.29 594.89Q3120.06 597.20 3127.69 597.20L3127.69 597.20Q3133.02 597.20 3138.35 596.23Q3143.67 595.25 3146.52 594.72L3146.52 594.72L3158.41 651.00Q3152.73 652.78 3142.43 655.17Q3132.13 657.57 3117.40 658.10L3117.40 658.10Q3090.05 659.17 3069.54 650.82Q3049.04 642.48 3037.67 624.90Q3026.31 607.32 3026.49 580.51L3026.49 580.51Z" fill="white"/>
  </g>
</svg>