<svg width="124" height="124" viewBox="0 0 124 124" fill="none"
  xmlns="http://www.w3.org/2000/svg">
  <path fill-rule="evenodd" clip-rule="evenodd" d="M19.8079 0.143984C15.1357 0.838841 10.6634 3.23393 6.92589 7.04269C3.20214 10.8378 1.01967 15.0948 0.26161 20.0427C-0.00229915 21.7641 -0.0303535 26.7857 0.0214996 62.8611L0.0803182 103.729L0.506364 105.351C1.46719 109.008 3.21433 112.497 5.65607 115.633C8.35979 119.107 12.9132 122.078 17.5293 123.382L19.4209 123.916L61.1163 123.973C107.099 124.035 104.462 124.101 108.077 122.806C116.062 119.946 122.06 112.652 123.701 103.803C123.97 102.351 124.003 97.6113 124 61.5513C123.995 16.7483 124.079 19.8931 122.791 16.1546C120.069 8.24815 114.068 2.67405 105.811 0.383455C104.629 0.0559156 102.017 0.0327595 62.7608 0.00287527C39.7752 -0.0145407 20.4464 0.0489875 19.8079 0.143984ZM101.442 16.6076C104.449 17.5295 107.476 20.1332 108.79 22.928C110.138 25.7934 110.06 23.4179 110.06 62.0694C110.06 100.786 110.138 98.4452 108.771 101.107C106.749 105.045 102.724 107.757 99.202 107.553C97.9138 107.479 97.7961 107.431 97.1787 106.743C96.6623 106.166 96.5234 105.843 96.5234 105.219C96.5234 104.046 97.2439 103.327 99.0112 102.735C101.963 101.747 103.702 99.9701 104.43 97.197C104.574 96.65 104.645 85.7692 104.661 61.8715C104.685 27.5338 104.683 27.3303 104.29 26.2721C103.541 24.2584 102.197 22.8433 100.085 21.8474L99.1354 21.3992L62.7608 21.3386C35.7183 21.2937 26.1133 21.337 25.3221 21.5076C22.893 22.0315 20.7347 23.8129 19.8667 26.0101L19.4209 27.1385L19.3617 61.4757C19.3172 87.2369 19.3594 96.0848 19.5299 96.9014C19.8422 98.3958 20.5441 99.7429 21.5427 100.764C22.5312 101.775 23.4608 102.295 25.0319 102.715C26.4801 103.101 27.0956 103.57 27.4071 104.521C27.7076 105.44 27.4789 106.317 26.7582 107.009C26.3671 107.385 26.0096 107.493 24.9491 107.554C21.2664 107.767 17.17 104.981 15.1669 100.902C13.9133 98.3487 14.0156 101.592 13.9553 62.5098C13.8943 23.0363 13.8059 25.8125 15.2189 22.8835C16.0642 21.1316 18.0031 18.9431 19.5608 17.9829C20.9326 17.1374 22.6031 16.5467 24.1612 16.3565C24.8529 16.272 42.2663 16.2148 62.8576 16.2296C98.1011 16.2549 100.363 16.2771 101.442 16.6076ZM31.043 26.3398C31.7473 26.6408 32.2883 27.5664 32.2867 28.4681C32.2855 29.1673 31.6233 30.1141 30.9559 30.3704C30.6241 30.4976 30.0922 30.7015 29.774 30.8232C28.859 31.1729 28.3544 32.1923 28.4589 33.4805C28.5668 34.8122 28.9126 35.2322 30.5057 35.9678C31.5137 36.4333 31.7748 36.6568 32.0241 37.2673C32.4109 38.2139 32.2523 39.2379 31.6188 39.886C30.9832 40.536 29.4673 40.5704 28.3197 39.9608C27.226 39.3796 25.5882 37.5359 24.9731 36.1935C24.5267 35.2191 24.4519 34.7978 24.454 33.2737C24.4561 31.6889 24.5236 31.3465 25.0681 30.1663C25.9837 28.1819 27.6302 26.6481 29.2885 26.2351C30.1636 26.0172 30.3084 26.0257 31.043 26.3398ZM40.1235 26.5238C42.0645 27.4669 43.7813 29.9055 44.0868 32.1539C44.2654 33.4675 44.0212 35.3029 43.5114 36.482C42.773 38.1894 40.5731 40.1136 39.0297 40.4022C37.7216 40.6466 36.3506 39.5765 36.3506 38.3107C36.3506 37.2841 36.9583 36.5101 38.2187 35.9316C39.6351 35.2817 40.2183 34.5061 40.2195 33.2705C40.2208 31.9119 39.6792 31.1691 38.2651 30.5901C37.2884 30.1901 36.9544 29.9399 36.6799 29.4026C36.2302 28.5227 36.3694 27.5444 37.0471 26.8209C37.8646 25.9483 38.7606 25.8618 40.1235 26.5238ZM95.3753 26.7942C98.119 28.171 99.8813 31.7587 99.2215 34.6246C98.4402 38.0174 95.8696 40.2995 92.8289 40.2995C90.2734 40.2995 88.8196 39.4692 88.6479 37.9119C88.5554 37.0728 88.5953 36.9718 89.2506 36.3834C90.1584 35.5681 90.7499 35.4256 91.572 35.8248C92.4524 36.252 92.9904 36.222 93.9006 35.6947C95.8356 34.5738 95.8841 32.1407 93.9977 30.8341C93.4691 30.4682 93.1756 30.3975 92.5812 30.4935C91.4354 30.6785 91.109 30.9414 90.6197 32.073C89.8489 33.8558 89.8376 33.8581 82.109 33.9203C75.8011 33.9711 75.5045 33.9569 74.897 33.5739C73.4258 32.6467 73.6307 30.5628 75.2787 29.6912C75.6922 29.4725 77.0092 29.4143 81.5673 29.4139L87.333 29.4133L87.7192 28.8237C88.2184 28.0618 89.6871 26.9193 90.6449 26.5478C91.7823 26.1068 94.263 26.2361 95.3753 26.7942ZM68.7781 29.8895C69.5021 30.63 69.5033 30.6374 69.4371 34.1631C69.416 35.2831 69.2876 36.3223 69.1189 36.7359C68.7561 37.6257 67.8084 38.6345 66.824 39.1789C66.0601 39.6012 65.9237 39.6068 56.4085 39.6068H46.7671L46.2127 38.9723C45.0921 37.6896 45.3568 36.05 46.8052 35.3027C47.4141 34.9884 48.2807 34.9565 56.2308 34.9563L64.9859 34.9559V33.0562C64.9859 30.2762 65.6352 29.2342 67.3754 29.2219C67.9684 29.2176 68.2546 29.3539 68.7781 29.8895ZM31.1146 45.814C32.3968 46.7606 32.7598 48.0955 32.1087 49.4711C30.9755 51.8654 27.2417 51.3347 26.7605 48.7108C26.5312 47.4608 27.6482 45.7265 28.9015 45.3863C29.5083 45.2215 30.5972 45.4318 31.1146 45.814ZM49.5104 45.6137C51.4737 46.6808 51.5975 49.6865 49.719 50.68C48.9791 51.0714 47.7115 51.0724 46.9079 50.6825C46.2098 50.3437 45.4442 49.1236 45.4442 48.3502C45.4442 47.2017 46.2205 46.0093 47.2823 45.5266C48.088 45.1603 48.722 45.185 49.5104 45.6137ZM40.1208 46.0721C41.146 46.8969 41.1876 47.2277 41.1876 54.5621C41.1876 60.404 41.1449 61.409 40.8713 61.9988C40.1003 63.6608 37.6545 63.6917 36.8244 62.0498C36.4005 61.2113 36.4115 47.6668 36.8368 46.8257C37.4256 45.661 39.1251 45.2709 40.1208 46.0721ZM69.3543 46.679C70.0971 47.5085 70.2248 48.4171 69.7347 49.3864C69.162 50.5193 68.7156 50.5907 62.2145 50.5907H56.3088L55.7171 50.0813C55.3917 49.8013 55.0249 49.2289 54.902 48.8095C54.7101 48.1543 54.7314 47.9431 55.0533 47.3084C55.7876 45.8611 55.9905 45.8235 62.7276 45.8852L68.6922 45.9399L69.3543 46.679ZM96.2841 46.2361C96.6314 46.4526 97.0626 46.9458 97.2428 47.332C97.5371 47.9635 97.5417 48.1175 97.2886 48.8608C97.1085 49.3892 96.7701 49.8501 96.3497 50.1389L95.6922 50.5907H85.7469C74.8366 50.5907 74.9775 50.6054 74.373 49.4098C73.7251 48.1279 74.2215 46.698 75.5142 46.1221C75.9871 45.9116 78.1411 45.855 85.8819 45.8494C95.3014 45.8427 95.6754 45.8565 96.2841 46.2361ZM30.9528 57.9644C31.8527 58.5761 32.5353 59.9754 32.3765 60.882C32.117 62.3617 30.8936 63.4643 29.5265 63.4504C28.5775 63.4409 27.5205 62.7382 27.0913 61.8315C26.4573 60.4917 26.604 59.5279 27.6079 58.437C28.5587 57.4037 29.8579 57.2201 30.9528 57.9644ZM68.4647 57.8643C70.5363 58.9288 70.5363 62.0237 68.4647 63.1177C67.1566 63.8084 65.4506 63.1633 64.7674 61.7197C63.565 59.1792 66.0272 56.6115 68.4647 57.8643ZM78.3323 57.8643C78.7026 58.0545 79.2109 58.5219 79.462 58.9029C79.8455 59.4853 79.9055 59.7814 79.8383 60.7622C79.7675 61.7963 79.6806 62.0017 79.0735 62.5709C78.6432 62.9745 78.0892 63.2648 77.5831 63.3523C75.6864 63.68 73.8388 61.771 74.2484 59.9065C74.6756 57.961 76.6244 56.9865 78.3323 57.8643ZM87.7558 57.7281C89.1589 58.2704 89.9859 59.8954 89.5741 61.3011C89.3073 62.2115 88.2403 63.1947 87.3288 63.3697C86.3167 63.5638 85.0198 62.9986 84.4256 62.1041C82.8719 59.7652 85.1798 56.7324 87.7558 57.7281ZM95.9296 57.8073C98.5064 59.1703 98.0258 62.8345 95.1988 63.3808C92.8774 63.8294 91.1618 61.3047 92.3047 59.1216C93.0504 57.6974 94.6354 57.1227 95.9296 57.8073ZM59.6272 58.5399C60.5877 59.064 60.9994 60.7632 60.4358 61.878C59.8598 63.0174 59.5941 63.0596 53.0481 63.052C46.6034 63.0443 46.5126 63.0307 45.8208 61.9572C44.9079 60.5404 45.8496 58.4677 47.4932 58.2759C48.728 58.1318 59.301 58.3618 59.6272 58.5399ZM30.8604 69.9976C31.7372 70.4319 32.481 71.6167 32.481 72.5792C32.481 73.4304 31.6666 74.8048 30.9331 75.1918C28.9731 76.2252 26.3607 74.263 26.7622 72.0587C26.9135 71.2275 27.9322 70.0271 28.6719 69.8083C29.6223 69.5268 29.9705 69.5571 30.8604 69.9976ZM49.5104 69.9565C51.8775 71.2431 51.4155 74.9452 48.8257 75.4421C47.8866 75.6224 47.125 75.3889 46.4498 74.7134C45.2958 73.5594 45.1815 71.9559 46.1679 70.757C47.106 69.6165 48.3408 69.3208 49.5104 69.9565ZM59.0646 70.0384C60.0953 70.643 60.5822 71.6015 60.478 72.8206C60.3748 74.0275 59.864 74.7328 58.75 75.2074C57.6396 75.6804 56.7033 75.5242 55.8032 74.716C54.5882 73.6247 54.444 71.986 55.455 70.757C56.4371 69.5632 57.7936 69.2933 59.0646 70.0384ZM40.1208 70.4148C41.1124 71.2126 41.1876 71.6981 41.1876 77.3021V82.454H49.9973C59.6717 82.454 59.8488 82.4738 60.4263 83.6161C61.0688 84.8871 60.6062 86.219 59.3138 86.8193C58.5565 87.171 57.9283 87.1953 49.5652 87.1995C43.7402 87.2023 40.2781 87.1274 39.6268 86.9846C38.9479 86.8357 38.3822 86.5389 37.8634 86.0593C36.5228 84.8206 36.5441 84.9506 36.5441 78.0011C36.5441 71.2955 36.5843 70.989 37.5535 70.2947C38.1894 69.8389 39.4804 69.8995 40.1208 70.4148ZM96.2591 70.5633C97.419 71.3517 97.6522 73.1355 96.733 74.1882L96.1684 74.8345L81.4963 74.9335C73.4265 74.9879 66.5465 74.963 66.2075 74.8783C64.8334 74.5343 64.1814 72.7711 64.9017 71.3464C65.5021 70.1585 65.0434 70.1898 81.1416 70.2383C93.4577 70.2755 95.9134 70.3282 96.2591 70.5633ZM31.292 80.9549C31.9404 81.2978 32.2875 82.0216 32.2875 83.0303C32.2875 83.9407 31.7738 84.6763 30.8913 85.0298C28.8704 85.8389 28.4178 86.3546 28.4178 87.8482C28.4178 89.1792 29.0283 89.9611 30.5535 90.5841C31.9075 91.1373 32.2797 91.5934 32.2846 92.7057C32.2983 95.8421 28.188 95.4709 25.7818 92.1181C24.4782 90.3015 24.0684 88.0157 24.6424 85.7613C25.5015 82.3875 29.0929 79.7916 31.292 80.9549ZM94.9198 81.0991C96.4524 81.6826 98.2442 83.5342 98.8444 85.1545C99.4347 86.7482 99.4309 88.857 98.8345 90.4693C98.2264 92.1134 96.4623 93.9232 94.9756 94.4283C92.2554 95.3523 89.5236 94.4702 87.8866 92.1397L87.2104 91.1768L78.178 91.1198C69.2183 91.0634 69.138 91.0595 68.1783 90.6077C67.0103 90.0577 66.0601 89.1611 65.5147 88.0944C65.0099 87.1071 64.8077 84.1634 65.1813 83.2409C65.6834 82.001 67.3135 81.4296 68.356 82.1283C69.1941 82.6901 69.465 83.3298 69.5778 85.0148L69.684 86.5998L79.6009 86.6544C90.9024 86.7168 90.0702 86.5774 90.616 88.4976C91.1616 90.4177 92.7492 91.1373 94.2018 90.123C95.6005 89.1463 95.8518 87.6103 94.837 86.2428C94.1227 85.2802 93.3873 85.0306 91.6599 85.1642L90.208 85.2766L89.3994 84.4897C88.3534 83.4719 88.3101 82.7541 89.2377 81.8055C89.5935 81.4415 90.1813 81.0469 90.5437 80.9285C91.6957 80.5523 93.6875 80.6299 94.9198 81.0991ZM84.3023 97.526C84.9735 97.7433 90.8232 103.281 91.5146 104.354C91.9572 105.041 91.9892 106.351 91.5778 106.952C90.954 107.863 89.6159 108.223 88.4858 107.783C88.2016 107.673 86.7176 106.337 85.1881 104.815L82.4072 102.047H61.9581H41.5088L38.8813 104.697C36.0522 107.55 35.4385 107.984 34.2385 107.984C32.6477 107.984 31.4739 106.173 32.1395 104.745C32.5545 103.855 37.6355 98.5483 38.6724 97.922L39.543 97.3961L46.6051 97.2972C58.186 97.1349 83.5708 97.2889 84.3023 97.526ZM80.0707 107.451C80.4538 107.586 80.9307 107.976 81.1832 108.36C82.0444 109.67 81.5963 111.238 80.1576 111.951C79.3738 112.339 79.0162 112.345 61.5448 112.293C43.8923 112.24 43.7261 112.236 43.1849 111.831C42.8845 111.606 42.4751 111.085 42.2752 110.673C41.9678 110.04 41.9453 109.81 42.1299 109.18C42.3803 108.325 43.1519 107.453 43.7662 107.33C43.9974 107.284 52.1097 107.239 61.7934 107.231C74.9663 107.219 79.5692 107.274 80.0707 107.451Z" fill="white"/>
  <path fill-rule="evenodd" clip-rule="evenodd" d="M19.8079 0.143984C15.1357 0.838841 10.6634 3.23393 6.92589 7.04269C3.20214 10.8378 1.01967 15.0948 0.26161 20.0427C-0.00229915 21.7641 -0.0303535 26.7857 0.0214996 62.8611L0.0803182 103.729L0.506364 105.351C1.46719 109.008 3.21433 112.497 5.65607 115.633C8.35979 119.107 12.9132 122.078 17.5293 123.382L19.4209 123.916L61.1163 123.973C107.099 124.035 104.462 124.101 108.077 122.806C116.062 119.946 122.06 112.652 123.701 103.803C123.97 102.351 124.003 97.6113 124 61.5513C123.995 16.7483 124.079 19.8931 122.791 16.1546C120.069 8.24815 114.068 2.67405 105.811 0.383455C104.629 0.0559156 102.017 0.0327595 62.7608 0.00287527C39.7752 -0.0145407 20.4464 0.0489875 19.8079 0.143984ZM101.442 16.6076C104.449 17.5295 107.476 20.1332 108.79 22.928C110.138 25.7934 110.06 23.4179 110.06 62.0694C110.06 100.786 110.138 98.4452 108.771 101.107C106.749 105.045 102.724 107.757 99.202 107.553C97.9138 107.479 97.7961 107.431 97.1787 106.743C96.6623 106.166 96.5234 105.843 96.5234 105.219C96.5234 104.046 97.2439 103.327 99.0112 102.735C101.963 101.747 103.702 99.9701 104.43 97.197C104.574 96.65 104.645 85.7692 104.661 61.8715C104.685 27.5338 104.683 27.3303 104.29 26.2721C103.541 24.2584 102.197 22.8433 100.085 21.8474L99.1354 21.3992L62.7608 21.3386C35.7183 21.2937 26.1133 21.337 25.3221 21.5076C22.893 22.0315 20.7347 23.8129 19.8667 26.0101L19.4209 27.1385L19.3617 61.4757C19.3172 87.2369 19.3594 96.0848 19.5299 96.9014C19.8422 98.3958 20.5441 99.7429 21.5427 100.764C22.5312 101.775 23.4608 102.295 25.0319 102.715C26.4801 103.101 27.0956 103.57 27.4071 104.521C27.7076 105.44 27.4789 106.317 26.7582 107.009C26.3671 107.385 26.0096 107.493 24.9491 107.554C21.2664 107.767 17.17 104.981 15.1669 100.902C13.9133 98.3487 14.0156 101.592 13.9553 62.5098C13.8943 23.0363 13.8059 25.8125 15.2189 22.8835C16.0642 21.1316 18.0031 18.9431 19.5608 17.9829C20.9326 17.1374 22.6031 16.5467 24.1612 16.3565C24.8529 16.272 42.2663 16.2148 62.8576 16.2296C98.1011 16.2549 100.363 16.2771 101.442 16.6076ZM31.043 26.3398C31.7473 26.6408 32.2883 27.5664 32.2867 28.4681C32.2855 29.1673 31.6233 30.1141 30.9559 30.3704C30.6241 30.4976 30.0922 30.7015 29.774 30.8232C28.859 31.1729 28.3544 32.1923 28.4589 33.4805C28.5668 34.8122 28.9126 35.2322 30.5057 35.9678C31.5137 36.4333 31.7748 36.6568 32.0241 37.2673C32.4109 38.2139 32.2523 39.2379 31.6188 39.886C30.9832 40.536 29.4673 40.5704 28.3197 39.9608C27.226 39.3796 25.5882 37.5359 24.9731 36.1935C24.5267 35.2191 24.4519 34.7978 24.454 33.2737C24.4561 31.6889 24.5236 31.3465 25.0681 30.1663C25.9837 28.1819 27.6302 26.6481 29.2885 26.2351C30.1636 26.0172 30.3084 26.0257 31.043 26.3398ZM40.1235 26.5238C42.0645 27.4669 43.7813 29.9055 44.0868 32.1539C44.2654 33.4675 44.0212 35.3029 43.5114 36.482C42.773 38.1894 40.5731 40.1136 39.0297 40.4022C37.7216 40.6466 36.3506 39.5765 36.3506 38.3107C36.3506 37.2841 36.9583 36.5101 38.2187 35.9316C39.6351 35.2817 40.2183 34.5061 40.2195 33.2705C40.2208 31.9119 39.6792 31.1691 38.2651 30.5901C37.2884 30.1901 36.9544 29.9399 36.6799 29.4026C36.2302 28.5227 36.3694 27.5444 37.0471 26.8209C37.8646 25.9483 38.7606 25.8618 40.1235 26.5238ZM95.3753 26.7942C98.119 28.171 99.8813 31.7587 99.2215 34.6246C98.4402 38.0174 95.8696 40.2995 92.8289 40.2995C90.2734 40.2995 88.8196 39.4692 88.6479 37.9119C88.5554 37.0728 88.5953 36.9718 89.2506 36.3834C90.1584 35.5681 90.7499 35.4256 91.572 35.8248C92.4524 36.252 92.9904 36.222 93.9006 35.6947C95.8356 34.5738 95.8841 32.1407 93.9977 30.8341C93.4691 30.4682 93.1756 30.3975 92.5812 30.4935C91.4354 30.6785 91.109 30.9414 90.6197 32.073C89.8489 33.8558 89.8376 33.8581 82.109 33.9203C75.8011 33.9711 75.5045 33.9569 74.897 33.5739C73.4258 32.6467 73.6307 30.5628 75.2787 29.6912C75.6922 29.4725 77.0092 29.4143 81.5673 29.4139L87.333 29.4133L87.7192 28.8237C88.2184 28.0618 89.6871 26.9193 90.6449 26.5478C91.7823 26.1068 94.263 26.2361 95.3753 26.7942ZM68.7781 29.8895C69.5021 30.63 69.5033 30.6374 69.4371 34.1631C69.416 35.2831 69.2876 36.3223 69.1189 36.7359C68.7561 37.6257 67.8084 38.6345 66.824 39.1789C66.0601 39.6012 65.9237 39.6068 56.4085 39.6068H46.7671L46.2127 38.9723C45.0921 37.6896 45.3568 36.05 46.8052 35.3027C47.4141 34.9884 48.2807 34.9565 56.2308 34.9563L64.9859 34.9559V33.0562C64.9859 30.2762 65.6352 29.2342 67.3754 29.2219C67.9684 29.2176 68.2546 29.3539 68.7781 29.8895ZM31.1146 45.814C32.3968 46.7606 32.7598 48.0955 32.1087 49.4711C30.9755 51.8654 27.2417 51.3347 26.7605 48.7108C26.5312 47.4608 27.6482 45.7265 28.9015 45.3863C29.5083 45.2215 30.5972 45.4318 31.1146 45.814ZM49.5104 45.6137C51.4737 46.6808 51.5975 49.6865 49.719 50.68C48.9791 51.0714 47.7115 51.0724 46.9079 50.6825C46.2098 50.3437 45.4442 49.1236 45.4442 48.3502C45.4442 47.2017 46.2205 46.0093 47.2823 45.5266C48.088 45.1603 48.722 45.185 49.5104 45.6137ZM40.1208 46.0721C41.146 46.8969 41.1876 47.2277 41.1876 54.5621C41.1876 60.404 41.1449 61.409 40.8713 61.9988C40.1003 63.6608 37.6545 63.6917 36.8244 62.0498C36.4005 61.2113 36.4115 47.6668 36.8368 46.8257C37.4256 45.661 39.1251 45.2709 40.1208 46.0721ZM69.3543 46.679C70.0971 47.5085 70.2248 48.4171 69.7347 49.3864C69.162 50.5193 68.7156 50.5907 62.2145 50.5907H56.3088L55.7171 50.0813C55.3917 49.8013 55.0249 49.2289 54.902 48.8095C54.7101 48.1543 54.7314 47.9431 55.0533 47.3084C55.7876 45.8611 55.9905 45.8235 62.7276 45.8852L68.6922 45.9399L69.3543 46.679ZM96.2841 46.2361C96.6314 46.4526 97.0626 46.9458 97.2428 47.332C97.5371 47.9635 97.5417 48.1175 97.2886 48.8608C97.1085 49.3892 96.7701 49.8501 96.3497 50.1389L95.6922 50.5907H85.7469C74.8366 50.5907 74.9775 50.6054 74.373 49.4098C73.7251 48.1279 74.2215 46.698 75.5142 46.1221C75.9871 45.9116 78.1411 45.855 85.8819 45.8494C95.3014 45.8427 95.6754 45.8565 96.2841 46.2361ZM30.9528 57.9644C31.8527 58.5761 32.5353 59.9754 32.3765 60.882C32.117 62.3617 30.8936 63.4643 29.5265 63.4504C28.5775 63.4409 27.5205 62.7382 27.0913 61.8315C26.4573 60.4917 26.604 59.5279 27.6079 58.437C28.5587 57.4037 29.8579 57.2201 30.9528 57.9644ZM68.4647 57.8643C70.5363 58.9288 70.5363 62.0237 68.4647 63.1177C67.1566 63.8084 65.4506 63.1633 64.7674 61.7197C63.565 59.1792 66.0272 56.6115 68.4647 57.8643ZM78.3323 57.8643C78.7026 58.0545 79.2109 58.5219 79.462 58.9029C79.8455 59.4853 79.9055 59.7814 79.8383 60.7622C79.7675 61.7963 79.6806 62.0017 79.0735 62.5709C78.6432 62.9745 78.0892 63.2648 77.5831 63.3523C75.6864 63.68 73.8388 61.771 74.2484 59.9065C74.6756 57.961 76.6244 56.9865 78.3323 57.8643ZM87.7558 57.7281C89.1589 58.2704 89.9859 59.8954 89.5741 61.3011C89.3073 62.2115 88.2403 63.1947 87.3288 63.3697C86.3167 63.5638 85.0198 62.9986 84.4256 62.1041C82.8719 59.7652 85.1798 56.7324 87.7558 57.7281ZM95.9296 57.8073C98.5064 59.1703 98.0258 62.8345 95.1988 63.3808C92.8774 63.8294 91.1618 61.3047 92.3047 59.1216C93.0504 57.6974 94.6354 57.1227 95.9296 57.8073ZM59.6272 58.5399C60.5877 59.064 60.9994 60.7632 60.4358 61.878C59.8598 63.0174 59.5941 63.0596 53.0481 63.052C46.6034 63.0443 46.5126 63.0307 45.8208 61.9572C44.9079 60.5404 45.8496 58.4677 47.4932 58.2759C48.728 58.1318 59.301 58.3618 59.6272 58.5399ZM30.8604 69.9976C31.7372 70.4319 32.481 71.6167 32.481 72.5792C32.481 73.4304 31.6666 74.8048 30.9331 75.1918C28.9731 76.2252 26.3607 74.263 26.7622 72.0587C26.9135 71.2275 27.9322 70.0271 28.6719 69.8083C29.6223 69.5268 29.9705 69.5571 30.8604 69.9976ZM49.5104 69.9565C51.8775 71.2431 51.4155 74.9452 48.8257 75.4421C47.8866 75.6224 47.125 75.3889 46.4498 74.7134C45.2958 73.5594 45.1815 71.9559 46.1679 70.757C47.106 69.6165 48.3408 69.3208 49.5104 69.9565ZM59.0646 70.0384C60.0953 70.643 60.5822 71.6015 60.478 72.8206C60.3748 74.0275 59.864 74.7328 58.75 75.2074C57.6396 75.6804 56.7033 75.5242 55.8032 74.716C54.5882 73.6247 54.444 71.986 55.455 70.757C56.4371 69.5632 57.7936 69.2933 59.0646 70.0384ZM40.1208 70.4148C41.1124 71.2126 41.1876 71.6981 41.1876 77.3021V82.454H49.9973C59.6717 82.454 59.8488 82.4738 60.4263 83.6161C61.0688 84.8871 60.6062 86.219 59.3138 86.8193C58.5565 87.171 57.9283 87.1953 49.5652 87.1995C43.7402 87.2023 40.2781 87.1274 39.6268 86.9846C38.9479 86.8357 38.3822 86.5389 37.8634 86.0593C36.5228 84.8206 36.5441 84.9506 36.5441 78.0011C36.5441 71.2955 36.5843 70.989 37.5535 70.2947C38.1894 69.8389 39.4804 69.8995 40.1208 70.4148ZM96.2591 70.5633C97.419 71.3517 97.6522 73.1355 96.733 74.1882L96.1684 74.8345L81.4963 74.9335C73.4265 74.9879 66.5465 74.963 66.2075 74.8783C64.8334 74.5343 64.1814 72.7711 64.9017 71.3464C65.5021 70.1585 65.0434 70.1898 81.1416 70.2383C93.4577 70.2755 95.9134 70.3282 96.2591 70.5633ZM31.292 80.9549C31.9404 81.2978 32.2875 82.0216 32.2875 83.0303C32.2875 83.9407 31.7738 84.6763 30.8913 85.0298C28.8704 85.8389 28.4178 86.3546 28.4178 87.8482C28.4178 89.1792 29.0283 89.9611 30.5535 90.5841C31.9075 91.1373 32.2797 91.5934 32.2846 92.7057C32.2983 95.8421 28.188 95.4709 25.7818 92.1181C24.4782 90.3015 24.0684 88.0157 24.6424 85.7613C25.5015 82.3875 29.0929 79.7916 31.292 80.9549ZM94.9198 81.0991C96.4524 81.6826 98.2442 83.5342 98.8444 85.1545C99.4347 86.7482 99.4309 88.857 98.8345 90.4693C98.2264 92.1134 96.4623 93.9232 94.9756 94.4283C92.2554 95.3523 89.5236 94.4702 87.8866 92.1397L87.2104 91.1768L78.178 91.1198C69.2183 91.0634 69.138 91.0595 68.1783 90.6077C67.0103 90.0577 66.0601 89.1611 65.5147 88.0944C65.0099 87.1071 64.8077 84.1634 65.1813 83.2409C65.6834 82.001 67.3135 81.4296 68.356 82.1283C69.1941 82.6901 69.465 83.3298 69.5778 85.0148L69.684 86.5998L79.6009 86.6544C90.9024 86.7168 90.0702 86.5774 90.616 88.4976C91.1616 90.4177 92.7492 91.1373 94.2018 90.123C95.6005 89.1463 95.8518 87.6103 94.837 86.2428C94.1227 85.2802 93.3873 85.0306 91.6599 85.1642L90.208 85.2766L89.3994 84.4897C88.3534 83.4719 88.3101 82.7541 89.2377 81.8055C89.5935 81.4415 90.1813 81.0469 90.5437 80.9285C91.6957 80.5523 93.6875 80.6299 94.9198 81.0991ZM84.3023 97.526C84.9735 97.7433 90.8232 103.281 91.5146 104.354C91.9572 105.041 91.9892 106.351 91.5778 106.952C90.954 107.863 89.6159 108.223 88.4858 107.783C88.2016 107.673 86.7176 106.337 85.1881 104.815L82.4072 102.047H61.9581H41.5088L38.8813 104.697C36.0522 107.55 35.4385 107.984 34.2385 107.984C32.6477 107.984 31.4739 106.173 32.1395 104.745C32.5545 103.855 37.6355 98.5483 38.6724 97.922L39.543 97.3961L46.6051 97.2972C58.186 97.1349 83.5708 97.2889 84.3023 97.526ZM80.0707 107.451C80.4538 107.586 80.9307 107.976 81.1832 108.36C82.0444 109.67 81.5963 111.238 80.1576 111.951C79.3738 112.339 79.0162 112.345 61.5448 112.293C43.8923 112.24 43.7261 112.236 43.1849 111.831C42.8845 111.606 42.4751 111.085 42.2752 110.673C41.9678 110.04 41.9453 109.81 42.1299 109.18C42.3803 108.325 43.1519 107.453 43.7662 107.33C43.9974 107.284 52.1097 107.239 61.7934 107.231C74.9663 107.219 79.5692 107.274 80.0707 107.451Z" fill="white"/>
</svg>
